<?xml version="1.0" standalone="no"?><svg xmlns="http://www.w3.org/2000/svg" viewBox="0 0 1440 320"><path fill="#FD7014" fill-opacity="1" d="M0,32L16,42.7C32,53,64,75,96,117.3C128,160,160,224,192,250.7C224,277,256,267,288,261.3C320,256,352,256,384,250.7C416,245,448,235,480,213.3C512,192,544,160,576,154.7C608,149,640,171,672,181.3C704,192,736,192,768,197.3C800,203,832,213,864,218.7C896,224,928,224,960,186.7C992,149,1024,75,1056,74.7C1088,75,1120,149,1152,192C1184,235,1216,245,1248,213.3C1280,181,1312,107,1344,80C1376,53,1408,75,1424,85.3L1440,96L1440,320L1424,320C1408,320,1376,320,1344,320C1312,320,1280,320,1248,320C1216,320,1184,320,1152,320C1120,320,1088,320,1056,320C1024,320,992,320,960,320C928,320,896,320,864,320C832,320,800,320,768,320C736,320,704,320,672,320C640,320,608,320,576,320C544,320,512,320,480,320C448,320,416,320,384,320C352,320,320,320,288,320C256,320,224,320,192,320C160,320,128,320,96,320C64,320,32,320,16,320L0,320Z"></path></svg>